<?xml version="1.0" encoding="UTF-8"?>
<!-- Generator: https://ezgif.com/png-to-svg -->
<svg version="1.1" xmlns="http://www.w3.org/2000/svg" width="3167" height="1757">
<path d="M0 0 C11.89 9.5 16.99 23.69 18.73 38.39 C21.44 83.26 2.56 123.5 -24.27 158.39 C-24.73 158.98 -25.18 159.58 -25.65 160.19 C-31.45 167.74 -37.48 175.08 -43.67 182.32 C-46.02 185.07 -48.27 187.88 -50.52 190.7 C-54.97 196.17 -59.76 201.28 -64.61 206.38 C-67.99 209.94 -71.32 213.55 -74.58 217.22 C-79.49 222.69 -84.63 227.9 -89.84 233.08 C-90.73 233.98 -91.62 234.87 -92.54 235.8 C-97.06 240.31 -101.63 244.67 -106.47 248.83 C-109.24 251.23 -111.91 253.75 -114.59 256.27 C-119.43 260.77 -124.4 265.06 -129.56 269.2 C-132.34 271.44 -135.05 273.76 -137.77 276.08 C-163.63 297.67 -193.17 317.85 -223.52 332.52 C-237.73 339.41 -250.7 347.63 -262.27 358.39 C-262.78 358.85 -263.29 359.31 -263.81 359.78 C-287.82 381.66 -298.85 411.56 -306.27 442.39 C-301.45 441.06 -298.19 439.1 -294.27 436.02 C-293.72 435.58 -293.16 435.14 -292.58 434.69 C-287.8 430.9 -283.18 426.91 -278.56 422.92 C-272.96 418.08 -267.19 413.49 -261.32 408.98 C-259.03 407.2 -256.74 405.4 -254.46 403.6 C-237.12 390.04 -218.68 378.75 -199.27 368.39 C-198.63 368.04 -197.98 367.69 -197.32 367.34 C-187.42 362.03 -177.58 358.09 -166.27 357.39 C-165.05 357.31 -165.05 357.31 -163.79 357.23 C-154.54 356.92 -143.34 357.87 -136.27 364.39 C-131.25 371.37 -130.58 378.02 -131.27 386.39 C-133.38 398.15 -138.17 408.67 -143.27 419.39 C-143.95 420.81 -143.95 420.81 -144.64 422.26 C-149.09 431.62 -153.59 440.95 -158.14 450.26 C-180.43 491.36 -180.43 491.36 -182.3 535.97 C-179.22 543.24 -174.99 547.31 -167.77 550.48 C-154.39 555.34 -140.7 549.54 -128.27 544.39 C-127.6 544.12 -126.92 543.84 -126.23 543.56 C-116.47 539.56 -107.28 534.9 -98.27 529.39 C-97.55 528.95 -96.83 528.51 -96.09 528.06 C-74.56 514.85 -54.62 499.86 -35.09 483.87 C-33.51 482.58 -31.93 481.3 -30.34 480.02 C-20.66 472.18 -11.24 464.02 -2.02 455.64 C1.35 452.58 4.8 449.68 8.35 446.83 C12.43 443.53 16.16 440.07 19.81 436.31 C22.41 433.71 25.17 431.32 27.96 428.93 C29.75 427.42 29.75 427.42 31.33 425.69 C32.73 424.39 32.73 424.39 34.73 424.39 C35.06 423.4 35.39 422.41 35.73 421.39 C37.26 419.86 37.26 419.86 39.24 418.23 C42.28 415.64 45.24 413 48.12 410.24 C48.85 409.55 49.58 408.85 50.33 408.14 C51.82 406.7 53.32 405.26 54.81 403.82 C55.89 402.79 55.89 402.79 57 401.74 C57.64 401.12 58.29 400.5 58.95 399.86 C60.73 398.39 60.73 398.39 63.73 397.39 C64.06 396.4 64.39 395.41 64.73 394.39 C66.19 392.92 66.19 392.92 68.1 391.33 C72.65 387.48 77.03 383.47 81.41 379.43 C84.05 377.1 85.05 376.47 88.54 376.08 C92.57 376.47 94.07 377.34 96.73 380.39 C97.35 383.83 97.35 383.83 96.73 387.39 C95.11 389.38 93.65 390.75 91.73 392.39 C90.28 393.84 88.84 395.3 87.41 396.77 C84.06 400.12 80.62 403.29 77.02 406.38 C69.62 412.86 62.45 419.59 55.55 426.6 C53.05 429.05 50.41 431.31 47.75 433.58 C44.81 436.21 42.11 439.04 39.39 441.89 C37.73 443.39 37.73 443.39 35.73 443.39 C35.73 444.05 35.73 444.71 35.73 445.39 C34.4 446.7 34.4 446.7 32.48 448.27 C28.7 451.47 25.2 454.86 21.73 458.39 C17.9 462.26 14.04 465.98 9.89 469.5 C7.07 471.96 4.34 474.52 1.6 477.08 C-4.63 482.87 -11.05 488.43 -17.55 493.92 C-19.25 495.37 -20.94 496.82 -22.62 498.27 C-29.08 503.82 -35.66 509.11 -42.55 514.13 C-44.46 515.53 -46.36 516.94 -48.25 518.35 C-123.39 573.82 -123.39 573.82 -162.27 571.39 C-177.01 569.1 -188.4 561.35 -197.27 549.39 C-198.2 547.8 -199.08 546.17 -199.9 544.52 C-200.3 543.71 -200.71 542.91 -201.12 542.09 C-203.74 535.94 -204.64 530.42 -204.59 523.83 C-204.58 523.04 -204.57 522.25 -204.57 521.43 C-203.91 489.01 -183.89 455.1 -169.8 426.49 C-158.82 405.93 -158.82 405.93 -155.27 383.39 C-156.29 380.63 -156.64 379.71 -159.27 378.39 C-168.6 376.81 -176.92 380.77 -185.27 384.39 C-186.02 384.71 -186.76 385.03 -187.53 385.36 C-210.62 395.49 -231.88 409.32 -251.27 425.39 C-252.17 426.12 -253.08 426.85 -254 427.6 C-259.32 431.9 -264.48 436.31 -269.5 440.96 C-271.27 442.39 -271.27 442.39 -273.27 442.39 C-273.27 443.05 -273.27 443.71 -273.27 444.39 C-274.92 446.01 -274.92 446.01 -277.09 447.83 C-280.1 450.36 -280.1 450.36 -282.91 453.11 C-284.27 454.39 -284.27 454.39 -286.27 454.39 C-286.6 455.38 -286.93 456.37 -287.27 457.39 C-288.73 458.83 -288.73 458.83 -290.65 460.39 C-298.89 467.41 -306.24 475.07 -312.98 483.53 C-314.99 486.04 -317.06 488.49 -319.16 490.93 C-324.64 497.3 -329.78 503.88 -334.77 510.65 C-337.61 514.45 -340.26 517.75 -344.27 520.39 C-348.29 520.96 -350.47 520.8 -354.09 518.95 C-357.25 515.25 -358 512.21 -358.27 507.39 C-356.77 495.57 -350.96 484.23 -346.46 473.33 C-345.61 471.24 -344.75 469.15 -343.9 467.06 C-342.61 463.9 -341.32 460.74 -340.03 457.58 C-336.03 447.83 -332.11 438.05 -328.21 428.27 C-327.63 426.81 -327.05 425.35 -326.46 423.89 C-325.47 421.4 -324.48 418.91 -323.48 416.43 C-322.42 413.75 -321.35 411.07 -320.27 408.39 C-321.17 409 -322.07 409.6 -322.99 410.23 C-331.58 416 -340.26 421.58 -349.06 427.02 C-351.39 428.47 -353.72 429.92 -356.04 431.38 C-378.55 445.49 -401.59 458.37 -425.27 470.39 C-426.7 471.12 -428.12 471.85 -429.54 472.59 C-452.69 484.43 -476.52 495.02 -500.88 504.12 C-509.61 507.42 -518.33 511.35 -524.98 518.13 C-526.27 519.39 -526.27 519.39 -528.27 519.39 C-528.54 519.97 -528.8 520.54 -529.07 521.13 C-530.35 523.54 -531.84 525.42 -533.59 527.52 C-538.53 533.8 -541.64 540.41 -544.21 547.95 C-549.26 562.24 -560.04 571.59 -573.27 578.39 C-582.78 582.31 -591.63 584.23 -601.52 580.83 C-607.8 578.03 -610.83 573.93 -614.15 568.08 C-616.28 561.11 -616.18 555.62 -612.96 549.02 C-611.3 545.95 -609.54 543.05 -607.27 540.39 C-606.61 540.39 -605.95 540.39 -605.27 540.39 C-605.27 539.73 -605.27 539.07 -605.27 538.39 C-603.46 536.94 -601.57 535.58 -599.65 534.27 C-599.07 533.87 -598.48 533.47 -597.89 533.05 C-593.74 530.25 -589.47 527.79 -585.09 525.39 C-575.03 519.81 -566.2 512.79 -562.67 501.45 C-560.45 489.85 -564.23 480.33 -569.16 470.04 C-578.94 449.51 -587.73 428.7 -592.27 406.39 C-592.67 406.79 -593.06 407.19 -593.47 407.6 C-597.62 411.77 -601.78 415.94 -605.93 420.11 C-607.48 421.66 -609.03 423.21 -610.57 424.76 C-612.8 427.01 -615.04 429.25 -617.27 431.49 C-617.95 432.17 -618.63 432.86 -619.34 433.57 C-623.24 437.47 -627.25 441.2 -631.45 444.8 C-634.58 447.53 -637.57 450.41 -640.59 453.27 C-645.75 458.12 -651 462.76 -656.54 467.19 C-659.07 469.22 -661.54 471.31 -664 473.42 C-675.23 483.03 -686.94 491.78 -699.22 500.01 C-700.56 500.91 -701.89 501.81 -703.22 502.72 C-732.68 522.8 -772.9 546.55 -809.27 548.39 C-810.37 548.5 -811.47 548.6 -812.6 548.71 C-838.33 551.11 -862.04 548.01 -883.52 533.14 C-896.56 520.1 -901.03 504.53 -901.34 486.55 C-900.56 463.15 -891.99 440.45 -880.27 420.39 C-885.59 423.56 -890.88 426.76 -896.15 430.02 C-897.87 431.08 -899.6 432.14 -901.33 433.2 C-902.68 434.03 -904.04 434.86 -905.39 435.7 C-949.25 462.68 -994.59 481.62 -1044.02 495.76 C-1059.29 500.13 -1074.36 504.9 -1089.27 510.39 C-1090.07 510.68 -1090.86 510.97 -1091.68 511.27 C-1112.03 518.82 -1131.07 529.94 -1147.95 543.55 C-1161.03 553.92 -1178.03 560.23 -1194.74 559.8 C-1203.25 558.81 -1211.17 555.81 -1216.91 549.29 C-1221.42 543 -1224.33 536.23 -1223.27 528.39 C-1220.45 517.94 -1215.55 509.99 -1206.77 503.58 C-1196.06 497.66 -1183.96 497.08 -1172.02 496.39 C-1140.05 494.54 -1109.79 485.25 -1087.11 461.51 C-1083.51 457.35 -1080.35 452.94 -1077.27 448.39 C-1076.74 447.61 -1076.2 446.83 -1075.65 446.03 C-1065.45 430.22 -1061.12 411.08 -1061.02 392.52 C-1060.99 390.96 -1060.99 390.96 -1060.96 389.37 C-1060.93 382.99 -1061.37 377.18 -1064.27 371.39 C-1067.49 368.25 -1069.86 366.5 -1074.35 366.16 C-1078.95 366.43 -1082.7 367.55 -1087.02 369.08 C-1087.82 369.35 -1088.61 369.63 -1089.43 369.91 C-1100.31 373.74 -1109.11 378.33 -1118.27 385.39 C-1120.23 386.85 -1122.19 388.31 -1124.15 389.77 C-1134.1 397.26 -1143.95 404.89 -1153.73 412.61 C-1156.09 414.46 -1158.45 416.31 -1160.81 418.14 C-1168.25 423.93 -1175.5 429.89 -1182.66 436.02 C-1184.28 437.4 -1185.92 438.77 -1187.55 440.14 C-1199.69 450.22 -1199.69 450.22 -1210.98 461.2 C-1212.27 462.39 -1212.27 462.39 -1214.27 462.39 C-1214.27 463.05 -1214.27 463.71 -1214.27 464.39 C-1215.71 465.8 -1215.71 465.8 -1217.71 467.45 C-1226 474.08 -1226 474.08 -1232.27 482.39 C-1232.93 482.39 -1233.59 482.39 -1234.27 482.39 C-1234.48 482.92 -1234.69 483.46 -1234.91 484 C-1236.81 487.33 -1239.44 489.85 -1242.09 492.58 C-1248.89 499.74 -1254.87 507.39 -1260.74 515.33 C-1262.18 517.26 -1263.64 519.19 -1265.11 521.1 C-1280.25 541 -1292.81 563.61 -1302.04 586.82 C-1302.46 587.89 -1302.89 588.96 -1303.33 590.06 C-1307.9 601.71 -1311.79 613.56 -1315.66 625.46 C-1317.8 632.06 -1319.99 638.65 -1322.18 645.23 C-1322.4 645.89 -1322.62 646.55 -1322.84 647.22 C-1329.14 666.14 -1336.09 684.79 -1343.27 703.39 C-1343.63 704.32 -1343.99 705.24 -1344.36 706.2 C-1359.77 746.15 -1375.91 785.8 -1392.41 825.31 C-1393.18 827.16 -1393.95 829.02 -1394.72 830.88 C-1405.42 856.67 -1417.46 881.5 -1436.27 902.39 C-1437.63 903.99 -1438.98 905.6 -1440.34 907.2 C-1441.93 909.1 -1441.93 909.1 -1443.27 910.39 C-1443.93 910.39 -1444.59 910.39 -1445.27 910.39 C-1445.6 911.38 -1445.93 912.37 -1446.27 913.39 C-1453.06 920.54 -1461.64 927.39 -1471.71 927.83 C-1480.15 927.72 -1486.6 924.64 -1492.89 919.08 C-1501.43 910.12 -1504.78 900.92 -1504.6 888.64 C-1502.82 858.68 -1489.93 828.19 -1477.27 801.39 C-1476.76 800.29 -1476.25 799.19 -1475.72 798.06 C-1468.93 783.53 -1461.73 769.3 -1453.9 755.31 C-1452.12 752.11 -1450.36 748.9 -1448.61 745.69 C-1441.7 733.08 -1434.56 720.71 -1426.73 708.65 C-1425.22 706.31 -1423.75 703.96 -1422.29 701.6 C-1415.64 690.92 -1408.64 680.58 -1401.27 670.39 C-1400.58 669.42 -1399.88 668.45 -1399.16 667.45 C-1397.22 664.75 -1395.25 662.07 -1393.27 659.39 C-1392.84 658.8 -1392.41 658.22 -1391.96 657.62 C-1386.54 650.28 -1381.03 643.04 -1375.27 635.95 C-1368.87 628.04 -1363.02 619.79 -1357.27 611.39 C-1356.79 610.69 -1356.32 609.99 -1355.82 609.27 C-1340.06 586.17 -1325.53 562.43 -1313.23 537.32 C-1312.3 535.44 -1311.35 533.58 -1310.39 531.71 C-1291.61 495.19 -1278.15 455.94 -1267.52 416.33 C-1267.35 415.67 -1267.17 415.02 -1266.99 414.34 C-1265.5 408.9 -1265.5 408.9 -1264.27 403.39 C-1264.6 403.06 -1264.93 402.73 -1265.27 402.39 C-1270.67 406.45 -1275.89 410.7 -1281.02 415.08 C-1281.55 415.52 -1282.07 415.97 -1282.61 416.42 C-1293.31 425.62 -1303.45 435.4 -1313.41 445.39 C-1315.16 447.16 -1316.93 448.92 -1318.7 450.68 C-1319.84 451.83 -1320.99 452.97 -1322.14 454.12 C-1322.65 454.64 -1323.17 455.15 -1323.7 455.68 C-1326.48 458.47 -1329.13 461.35 -1331.71 464.33 C-1335.11 468.25 -1338.68 471.96 -1342.35 475.64 C-1343 476.29 -1343.66 476.95 -1344.33 477.62 C-1345.7 479 -1347.07 480.37 -1348.44 481.74 C-1350.51 483.81 -1352.57 485.89 -1354.63 487.97 C-1361.87 495.24 -1369.14 502.11 -1377.27 508.39 C-1377.95 508.93 -1378.62 509.47 -1379.31 510.02 C-1406.18 531.43 -1442.94 551.64 -1478.27 548.39 C-1488.38 546.45 -1496.82 540.95 -1502.96 532.83 C-1510.86 520.87 -1514.44 506.53 -1511.68 492.34 C-1510.85 489.28 -1509.9 486.28 -1508.9 483.27 C-1508.36 481.61 -1508.36 481.61 -1507.82 479.91 C-1501.56 460.72 -1494.34 441.89 -1486.27 423.39 C-1496.95 434.9 -1496.95 434.9 -1507.09 446.89 C-1508.17 448.13 -1508.17 448.13 -1509.27 449.39 C-1509.93 449.39 -1510.59 449.39 -1511.27 449.39 C-1511.49 449.93 -1511.7 450.47 -1511.92 451.02 C-1513.76 454.24 -1516.26 456.66 -1518.87 459.25 C-1519.41 459.8 -1519.96 460.35 -1520.53 460.91 C-1521.68 462.07 -1522.84 463.22 -1524 464.37 C-1525.77 466.14 -1527.54 467.92 -1529.31 469.7 C-1530.43 470.82 -1531.56 471.94 -1532.68 473.06 C-1533.21 473.6 -1533.74 474.13 -1534.29 474.68 C-1538.04 478.39 -1538.04 478.39 -1540.27 478.39 C-1540.27 479.05 -1540.27 479.71 -1540.27 480.39 C-1541.5 481.66 -1541.5 481.66 -1543.34 483.2 C-1544.07 483.82 -1544.8 484.44 -1545.55 485.08 C-1546.45 485.84 -1547.35 486.61 -1548.27 487.39 C-1549.4 488.38 -1550.53 489.37 -1551.65 490.36 C-1559.37 497.13 -1567.23 503.64 -1575.37 509.91 C-1577.43 511.51 -1579.47 513.12 -1581.52 514.73 C-1618.54 543.83 -1654.07 564.26 -1702.88 560.17 C-1714.92 558.72 -1725.68 554.82 -1733.77 545.52 C-1744.43 529.52 -1744.76 507.75 -1744.25 489.25 C-1744.23 488.29 -1744.21 487.34 -1744.18 486.36 C-1744.15 485.52 -1744.12 484.68 -1744.09 483.81 C-1744.3 480.98 -1745.02 478.94 -1746.27 476.39 C-1749 474.13 -1750.97 473.44 -1754.46 472.83 C-1764.32 474.28 -1772.12 482.34 -1779.62 488.45 C-1783.4 491.51 -1787.27 494.39 -1791.22 497.21 C-1793.61 498.92 -1795.99 500.64 -1798.36 502.38 C-1814.03 513.86 -1830.05 524.36 -1847.27 533.39 C-1847.9 533.72 -1848.52 534.05 -1849.17 534.39 C-1867.27 543.78 -1887.61 551.29 -1908.09 546.5 C-1919.63 542.49 -1929.08 534.82 -1934.56 523.8 C-1936.4 519.41 -1937.88 515.17 -1938.27 510.39 C-1938.34 509.66 -1938.4 508.93 -1938.46 508.18 C-1940.15 471.97 -1912.88 435.6 -1889.96 410.33 C-1889.46 409.77 -1888.95 409.21 -1888.43 408.63 C-1885.93 405.91 -1883.76 403.72 -1880.27 402.39 C-1880.27 401.73 -1880.27 401.07 -1880.27 400.39 C-1877.31 397.63 -1874.08 395.18 -1870.9 392.68 C-1869.32 391.43 -1867.77 390.16 -1866.21 388.89 C-1838.42 366.46 -1806.03 356.52 -1770.64 357.46 C-1768.12 357.5 -1768.12 357.5 -1765.27 356.39 C-1755.35 354.96 -1747.21 358.62 -1738.27 362.39 C-1729.64 366 -1723.44 368.45 -1714.19 365.47 C-1711.77 364.11 -1711.35 362.91 -1710.27 360.39 C-1709.39 359.11 -1708.49 357.84 -1707.59 356.58 C-1701.52 347.47 -1697.63 337.53 -1693.98 327.27 C-1688.58 312.14 -1681.96 297.96 -1674.83 283.6 C-1672.36 278.61 -1670.05 273.56 -1667.84 268.45 C-1665.24 262.49 -1662.47 256.66 -1659.52 250.86 C-1657.13 246.14 -1654.82 241.38 -1652.55 236.6 C-1639.44 209 -1626.23 181.29 -1610.75 154.93 C-1609.16 152.2 -1607.62 149.45 -1606.09 146.69 C-1591.68 120.72 -1575.4 95.92 -1557.27 72.39 C-1556.81 71.78 -1556.34 71.18 -1555.86 70.55 C-1547.55 59.77 -1538.83 49.35 -1529.81 39.15 C-1528.79 37.98 -1527.78 36.8 -1526.8 35.6 C-1523.01 31.02 -1518.85 27.17 -1514.27 23.39 C-1513.56 22.79 -1512.85 22.19 -1512.11 21.57 C-1501.67 13.06 -1489.74 7.74 -1476.02 8.45 C-1465.72 9.74 -1458.13 14.46 -1451.58 22.46 C-1438.08 41.38 -1438.51 67.46 -1441.79 89.48 C-1447 120.59 -1461.96 149.75 -1478.27 176.39 C-1478.77 177.2 -1479.26 178.02 -1479.77 178.85 C-1496.24 206.06 -1514.43 232.35 -1535.16 256.5 C-1537.95 259.77 -1540.63 263.11 -1543.25 266.52 C-1549.29 274.4 -1555.92 281.59 -1562.76 288.78 C-1566.31 292.55 -1569.85 296.36 -1572.82 300.6 C-1573.3 301.19 -1573.78 301.78 -1574.27 302.39 C-1574.93 302.39 -1575.59 302.39 -1576.27 302.39 C-1576.51 302.96 -1576.75 303.52 -1576.99 304.1 C-1578.57 306.91 -1580.51 308.79 -1582.84 311.02 C-1585.96 313.9 -1585.96 313.9 -1588.27 317.39 C-1588.93 317.39 -1589.59 317.39 -1590.27 317.39 C-1590.52 317.96 -1590.77 318.53 -1591.02 319.12 C-1592.48 321.77 -1594.19 323.56 -1596.32 325.7 C-1597.16 326.54 -1597.99 327.38 -1598.85 328.25 C-1600.21 329.59 -1600.21 329.59 -1601.59 330.97 C-1602.51 331.9 -1603.44 332.82 -1604.39 333.78 C-1606.34 335.73 -1608.3 337.69 -1610.26 339.64 C-1612.77 342.14 -1615.28 344.65 -1617.78 347.17 C-1620.17 349.57 -1622.57 351.95 -1624.96 354.34 C-1625.86 355.25 -1626.77 356.16 -1627.69 357.09 C-1628.95 358.33 -1628.95 358.33 -1630.22 359.6 C-1630.96 360.33 -1631.69 361.07 -1632.45 361.82 C-1634.27 363.39 -1634.27 363.39 -1636.27 363.39 C-1636.6 364.38 -1636.93 365.37 -1637.27 366.39 C-1638.77 367.86 -1638.77 367.86 -1640.71 369.45 C-1644.07 372.29 -1647.19 375.26 -1650.27 378.39 C-1653.17 381.32 -1656.08 384.15 -1659.21 386.83 C-1662.56 389.69 -1665.68 392.75 -1668.77 395.89 C-1671.85 399.01 -1674.94 402.05 -1678.27 404.89 C-1704.79 427.74 -1721.1 457.29 -1724.27 492.39 C-1725.13 506.69 -1723.84 521.78 -1714.68 533.42 C-1707.7 540.93 -1699.14 543.91 -1689.08 544.61 C-1661.06 545.33 -1630.44 530.76 -1608.27 514.39 C-1607.67 513.95 -1607.06 513.51 -1606.44 513.06 C-1584.94 497.43 -1566.12 479.32 -1547.34 460.58 C-1546.65 459.89 -1545.96 459.21 -1545.26 458.51 C-1543.29 456.55 -1541.33 454.59 -1539.37 452.62 C-1538.77 452.02 -1538.17 451.42 -1537.55 450.81 C-1534.55 447.88 -1534.55 447.88 -1532.27 444.39 C-1531.61 444.39 -1530.95 444.39 -1530.27 444.39 C-1529.94 443.4 -1529.61 442.41 -1529.27 441.39 C-1528.61 441.39 -1527.95 441.39 -1527.27 441.39 C-1527.27 440.73 -1527.27 440.07 -1527.27 439.39 C-1525.65 437.66 -1523.99 436.03 -1522.27 434.39 C-1520.81 432.94 -1519.34 431.49 -1517.88 430.04 C-1517.09 429.25 -1516.3 428.46 -1515.48 427.65 C-1514.27 426.44 -1514.27 426.44 -1513.02 425.2 C-1511.78 423.97 -1511.78 423.97 -1510.52 422.72 C-1509.73 421.94 -1508.94 421.15 -1508.13 420.35 C-1507.42 419.64 -1506.7 418.92 -1505.96 418.19 C-1504.2 416.49 -1504.2 416.49 -1503.27 414.39 C-1502.61 414.39 -1501.95 414.39 -1501.27 414.39 C-1500.93 413.56 -1500.93 413.56 -1500.59 412.7 C-1498.9 409.74 -1496.71 407.78 -1494.27 405.39 C-1492.51 403.61 -1490.76 401.83 -1489 400.05 C-1487.49 398.52 -1485.97 396.99 -1484.45 395.46 C-1483.42 394.42 -1482.39 393.37 -1481.35 392.32 C-1475.95 386.83 -1470.66 381.76 -1464.27 377.39 C-1462.32 375.26 -1462.32 375.26 -1460.77 373.14 C-1458.32 370.24 -1457.43 369.45 -1453.71 368.14 C-1449.45 368.45 -1447.52 369.67 -1444.27 372.39 C-1442 375.79 -1441.93 377.55 -1442.5 381.53 C-1443.86 386.53 -1446.39 390.96 -1448.78 395.54 C-1461.39 419.77 -1472.34 445.41 -1481.9 471.02 C-1482.3 472.09 -1482.7 473.16 -1483.12 474.26 C-1487.75 486.96 -1493.06 502.1 -1487.65 515.39 C-1483.96 522.21 -1479.93 526.58 -1472.81 529.76 C-1452.29 534.84 -1425.1 518.69 -1408.18 508.53 C-1393.03 498.78 -1377.06 486.92 -1364.71 473.73 C-1363.27 472.39 -1363.27 472.39 -1361.27 472.39 C-1361.27 471.73 -1361.27 471.07 -1361.27 470.39 C-1359.91 469.05 -1359.91 469.05 -1357.96 467.45 C-1353.44 463.62 -1349.32 459.47 -1345.18 455.23 C-1343.04 453.08 -1340.8 451.09 -1338.49 449.11 C-1333.85 445.09 -1329.57 440.76 -1325.27 436.39 C-1320.33 431.36 -1315.34 426.48 -1309.98 421.88 C-1307.4 419.63 -1305.07 417.16 -1302.72 414.68 C-1301.27 413.39 -1301.27 413.39 -1299.27 413.39 C-1299.27 412.73 -1299.27 412.07 -1299.27 411.39 C-1297.7 409.98 -1296.06 408.63 -1294.4 407.33 C-1290.62 404.31 -1286.95 401.24 -1283.4 397.95 C-1279.7 394.58 -1275.87 391.43 -1271.9 388.39 C-1271.35 387.97 -1270.81 387.55 -1270.25 387.12 C-1267.53 385.06 -1264.79 383.03 -1261.99 381.07 C-1256.23 376.97 -1252.31 373.47 -1248.69 367.41 C-1246.26 363.95 -1243.17 361.94 -1239.27 360.39 C-1235.4 359.89 -1235.4 359.89 -1232.27 360.39 C-1229.58 364.43 -1229.75 367.62 -1230.65 372.36 C-1231.17 374.51 -1231.76 376.62 -1232.38 378.74 C-1232.6 379.52 -1232.82 380.3 -1233.05 381.11 C-1235.28 388.74 -1238 396.16 -1240.81 403.59 C-1246.37 418.37 -1250.92 433.08 -1254.56 448.46 C-1255.25 451.31 -1256.01 454.13 -1256.8 456.96 C-1257.04 457.82 -1257.28 458.68 -1257.53 459.57 C-1257.96 461.12 -1258.4 462.67 -1258.85 464.22 C-1260.27 469.4 -1260.45 474.02 -1260.27 479.39 C-1248.48 476.11 -1240.49 465.74 -1232.15 457.27 C-1222.79 447.77 -1222.79 447.77 -1218.41 444.02 C-1212.72 439.14 -1207.54 433.72 -1202.27 428.39 C-1190.28 416.24 -1190.28 416.24 -1183.91 410.81 C-1181.07 408.35 -1178.53 405.61 -1175.94 402.89 C-1174.27 401.39 -1174.27 401.39 -1172.27 401.39 C-1172.27 400.73 -1172.27 400.07 -1172.27 399.39 C-1170.77 398.02 -1169.19 396.72 -1167.59 395.45 C-1164.41 392.92 -1161.25 390.4 -1158.21 387.7 C-1150.12 380.55 -1141.58 374.85 -1132.27 369.39 C-1131.43 368.89 -1130.58 368.39 -1129.71 367.87 C-1110.32 356.41 -1087.19 343.03 -1063.73 347.92 C-1061.71 348.64 -1061.71 348.64 -1058.27 350.39 C-1057.24 350.91 -1056.21 351.42 -1055.15 351.95 C-1046.97 358.88 -1043.22 369.95 -1042.27 380.39 C-1041.54 395.47 -1041.24 410.03 -1046.27 424.39 C-1046.59 425.35 -1046.59 425.35 -1046.91 426.32 C-1051.65 440.77 -1058.48 453.98 -1067.67 466.09 C-1069.89 469.27 -1070.81 471.54 -1071.27 475.39 C-1070.59 478.75 -1069.75 479.99 -1067.15 482.2 C-1059.57 485.33 -1053.16 482.55 -1046.02 479.64 C-1036.33 475.83 -1026.57 472.48 -1016.67 469.27 C-1001.07 464.21 -986.11 458.41 -971.27 451.39 C-969.18 450.42 -967.09 449.46 -965 448.49 C-950.67 441.82 -936.91 434.37 -923.27 426.39 C-922.38 425.87 -921.48 425.35 -920.55 424.81 C-905.3 415.94 -890.25 406.73 -875.27 397.39 C-874.31 396.79 -873.35 396.19 -872.35 395.58 C-866.69 392.02 -861.26 388.28 -855.96 384.2 C-852.41 381.49 -848.89 378.8 -845.17 376.33 C-842.05 374.24 -839.19 371.94 -836.27 369.58 C-821.8 358.25 -806.19 353.04 -787.79 354.6 C-778.08 356.03 -765.54 361.61 -759.27 369.39 C-756.15 374.4 -753.64 379.43 -753.27 385.39 C-753.21 386.13 -753.15 386.87 -753.09 387.64 C-752.31 403.88 -758.7 420.27 -769.42 432.36 C-771.65 434.77 -773.94 437.08 -776.27 439.39 C-776.81 439.95 -777.34 440.5 -777.89 441.08 C-793.91 457.64 -818.05 470.35 -841.35 471.55 C-842.96 471.57 -842.96 471.57 -844.6 471.6 C-845.79 471.63 -846.99 471.66 -848.22 471.69 C-850.69 471.74 -853.17 471.78 -855.65 471.82 C-866.76 472.07 -866.76 472.07 -877.27 475.39 C-878.55 477.32 -878.55 477.32 -879.27 479.39 C-879.64 480.03 -880 480.67 -880.38 481.32 C-882.91 487.16 -881.63 494.17 -879.71 500.02 C-874.48 512.9 -864.19 521.16 -851.88 526.88 C-846.77 529.02 -841.71 530.4 -836.27 531.39 C-835.57 531.52 -834.86 531.65 -834.14 531.79 C-790.37 538.44 -739.07 506.35 -705.4 481.77 C-703.01 479.99 -700.64 478.2 -698.27 476.39 C-697.37 475.71 -697.37 475.71 -696.45 475.01 C-689.25 469.51 -682.36 463.82 -675.71 457.65 C-673.63 455.72 -671.5 453.86 -669.34 452.02 C-665.82 448.96 -662.55 445.7 -659.27 442.39 C-655.43 438.51 -651.56 434.77 -647.4 431.23 C-644.64 428.84 -641.96 426.37 -639.27 423.89 C-635.32 420.25 -631.32 416.65 -627.26 413.12 C-624.09 410.36 -620.98 407.54 -617.86 404.72 C-616.13 403.16 -614.4 401.61 -612.66 400.06 C-607.18 395.17 -601.87 390.17 -596.8 384.85 C-595.66 383.66 -594.47 382.52 -593.27 381.39 C-592.61 381.39 -591.95 381.39 -591.27 381.39 C-591.27 380.73 -591.27 380.07 -591.27 379.39 C-589.97 378.59 -589.97 378.59 -588.65 377.77 C-585.9 376.04 -584.27 374.23 -582.4 371.58 C-576.22 362.99 -568.2 357.44 -557.89 354.77 C-545.42 352.95 -534.35 354.43 -523.67 361.21 C-522.98 361.79 -522.98 361.79 -522.27 362.39 C-522.27 363.05 -522.27 363.71 -522.27 364.39 C-521.28 364.72 -520.29 365.05 -519.27 365.39 C-517.79 367.41 -516.49 369.38 -515.21 371.52 C-514.52 372.63 -513.83 373.75 -513.11 374.9 C-508.57 383.52 -507.84 392.98 -509.96 402.46 C-513.1 411.84 -518.55 419.5 -527.27 424.39 C-530.3 425.64 -532.99 426.4 -536.27 426.39 C-539.84 424.89 -539.84 424.89 -542.27 422.39 C-543.08 418.6 -542.68 417.02 -540.59 413.77 C-538.27 411.39 -538.27 411.39 -535.77 409.58 C-531.67 405.98 -529.67 402.12 -528.89 396.71 C-528.64 390.51 -529.4 385.36 -533.27 380.39 C-538.43 375.69 -543.06 374.07 -550 374.18 C-555.57 374.7 -560.63 378.25 -564.27 382.39 C-570.7 392.88 -571.49 402.75 -568.77 414.58 C-568.6 415.35 -568.42 416.12 -568.24 416.91 C-562.41 440.97 -551.82 465.29 -539.7 486.8 C-538.27 489.39 -538.27 489.39 -537.27 492.39 C-533.17 494.75 -528.89 494.93 -524.27 494.39 C-521.21 493.43 -518.4 492.06 -515.52 490.64 C-513.77 489.81 -512.01 488.99 -510.25 488.16 C-508.82 487.49 -508.82 487.49 -507.37 486.81 C-501.62 484.17 -495.78 481.73 -489.96 479.27 C-481.07 475.48 -472.26 471.62 -463.54 467.46 C-460.64 466.09 -457.73 464.76 -454.82 463.43 C-441.09 457.13 -427.51 450.67 -414.27 443.39 C-412.86 442.62 -412.86 442.62 -411.41 441.83 C-396.11 433.43 -381.11 424.6 -366.27 415.39 C-365.16 414.7 -365.16 414.7 -364.03 414 C-360.11 411.57 -356.21 409.13 -352.31 406.67 C-350.07 405.26 -347.84 403.86 -345.6 402.46 C-338.07 397.74 -330.56 392.98 -323.15 388.08 C-322.58 387.71 -322.02 387.33 -321.43 386.95 C-320.31 386.2 -319.2 385.44 -318.09 384.66 C-316.77 383.74 -315.42 382.85 -314.05 381.99 C-306.94 377.15 -304.44 371.46 -301.4 363.58 C-300.89 362.32 -300.38 361.07 -299.86 359.81 C-298.82 357.25 -297.78 354.68 -296.76 352.1 C-294.58 346.65 -292.31 341.24 -290.02 335.83 C-289.59 334.79 -289.15 333.75 -288.7 332.68 C-283.12 319.51 -277.1 306.53 -271.11 293.55 C-269.17 289.34 -267.24 285.13 -265.33 280.91 C-256.11 260.57 -246.42 240.43 -236.34 220.5 C-234.66 217.17 -233.01 213.82 -231.36 210.47 C-224.57 196.67 -217.38 183.19 -209.69 169.86 C-208.11 167.1 -206.57 164.32 -205.03 161.53 C-189.3 133.06 -171.37 105.71 -152.27 79.39 C-151.11 77.79 -151.11 77.79 -149.93 76.15 C-145.18 69.71 -140.14 63.58 -134.93 57.52 C-132.63 54.83 -130.45 52.06 -128.27 49.27 C-101.13 16.03 -43.66 -30.9 0 0 Z M-91.27 40.39 C-92.6 41.54 -93.93 42.69 -95.27 43.83 C-100.16 48.09 -104.95 52.55 -109.27 57.39 C-109.27 58.05 -109.27 58.71 -109.27 59.39 C-109.93 59.39 -110.59 59.39 -111.27 59.39 C-119.25 67.68 -125.76 77.7 -132.51 86.98 C-134.13 89.19 -135.76 91.4 -137.39 93.6 C-170.77 138.78 -197.84 188.53 -221.64 239.3 C-226.49 249.64 -231.43 259.86 -237.02 269.83 C-245.69 285.31 -255.55 304.04 -255.34 322.2 C-255.33 323.18 -255.32 324.15 -255.31 325.16 C-255.3 325.9 -255.29 326.63 -255.27 327.39 C-250.72 325.99 -246.51 324.17 -242.27 322.02 C-241.59 321.67 -240.9 321.32 -240.2 320.97 C-206.13 303.59 -173.7 283.36 -144.26 258.87 C-141.88 256.9 -139.5 254.95 -137.1 253 C-126.96 244.81 -126.96 244.81 -117.62 235.75 C-116.27 234.39 -116.27 234.39 -114.27 233.39 C-114.27 232.73 -114.27 232.07 -114.27 231.39 C-113.71 231.15 -113.15 230.92 -112.57 230.67 C-109.75 229.1 -107.82 227.17 -105.54 224.88 C-104.63 223.98 -103.73 223.07 -102.8 222.14 C-102.33 221.67 -101.87 221.19 -101.38 220.71 C-99.98 219.29 -98.57 217.87 -97.16 216.46 C-92.54 211.81 -88.04 207.1 -83.76 202.12 C-81.68 199.7 -79.51 197.36 -77.34 195.02 C-72.74 189.97 -68.47 184.76 -64.27 179.39 C-63.42 178.32 -62.57 177.25 -61.72 176.18 C-47.07 157.74 -33.43 138.57 -21.27 118.39 C-20.81 117.62 -20.34 116.86 -19.86 116.07 C-11.02 101.28 -5.82 85.34 -0.61 69.02 C-0.39 68.32 -0.16 67.63 0.06 66.91 C3.73 55.24 5.28 40.27 0.17 28.81 C-5.63 19.08 -13.47 13.24 -24.23 9.76 C-50.1 5.12 -73.61 23.67 -91.27 40.39 Z M-1506.97 42.46 C-1508.69 44.79 -1510.36 47.14 -1512.02 49.52 C-1516.84 56.24 -1521.81 62.33 -1527.5 68.32 C-1532.67 73.9 -1537.1 80.13 -1541.65 86.22 C-1543.23 88.33 -1544.82 90.42 -1546.41 92.51 C-1553.07 101.24 -1559.32 110.16 -1565.27 119.39 C-1565.74 120.11 -1566.2 120.82 -1566.68 121.56 C-1589.08 156.18 -1608.27 193.12 -1625.85 230.39 C-1628.46 235.9 -1631.12 241.4 -1633.77 246.89 C-1634.87 249.17 -1635.97 251.45 -1637.07 253.73 C-1638.64 257 -1640.21 260.27 -1641.79 263.54 C-1647.19 274.72 -1652.46 285.92 -1657.46 297.29 C-1659.12 301.06 -1660.84 304.79 -1662.59 308.52 C-1663.16 309.74 -1663.73 310.96 -1664.3 312.19 C-1665.36 314.45 -1666.43 316.71 -1667.49 318.97 C-1672.87 330.46 -1678.05 341.99 -1682.77 353.77 C-1683.18 354.78 -1683.59 355.8 -1684.01 356.84 C-1687.69 366.13 -1690.76 374.31 -1690.27 384.39 C-1687.28 385.3 -1685.77 385.6 -1682.84 384.38 C-1671.75 377.13 -1662.49 367.83 -1653.27 358.39 C-1650.88 355.95 -1648.62 353.65 -1645.9 351.58 C-1643.74 349.78 -1642.16 348.15 -1640.37 346.02 C-1635.26 340.11 -1629.64 334.69 -1624.09 329.2 C-1621.94 327.09 -1619.8 324.97 -1617.67 322.85 C-1617.19 322.37 -1616.7 321.9 -1616.21 321.41 C-1613.33 318.55 -1610.8 315.55 -1608.27 312.39 C-1606.63 310.7 -1604.96 309.04 -1603.27 307.39 C-1602.49 306.61 -1601.7 305.83 -1600.89 305.02 C-1600.08 304.22 -1599.27 303.42 -1598.44 302.59 C-1596.59 300.75 -1594.74 298.92 -1592.9 297.08 C-1591.98 296.17 -1591.06 295.25 -1590.11 294.31 C-1585.5 289.72 -1581.02 285.1 -1576.79 280.16 C-1574.56 277.57 -1572.23 275.08 -1569.9 272.58 C-1565.63 267.95 -1561.59 263.19 -1557.64 258.29 C-1555.47 255.63 -1553.24 253.03 -1550.98 250.45 C-1544.51 243.02 -1538.55 235.31 -1532.73 227.37 C-1531.33 225.46 -1529.91 223.57 -1528.5 221.68 C-1517.18 206.51 -1506.88 190.68 -1497.27 174.39 C-1496.85 173.68 -1496.43 172.97 -1496 172.24 C-1478.58 142.5 -1448.71 89.39 -1457.49 53.73 C-1460.69 44.15 -1466.62 37.61 -1475.59 33.02 C-1488.17 27.14 -1498.61 32.25 -1506.97 42.46 Z M-1858.9 409.02 C-1859.87 409.78 -1859.87 409.78 -1860.86 410.56 C-1862.37 411.79 -1863.83 413.08 -1865.27 414.39 C-1865.27 415.05 -1865.27 415.71 -1865.27 416.39 C-1865.81 416.59 -1866.35 416.8 -1866.9 417.01 C-1870.26 418.96 -1872.67 421.68 -1875.27 424.52 C-1876.13 425.45 -1876.13 425.45 -1877 426.4 C-1895.32 446.7 -1917.48 475.95 -1916.64 504.44 C-1915.91 512.34 -1912.67 517.35 -1907.09 522.83 C-1900.1 528.49 -1894.07 529.84 -1885.15 529.02 C-1861.39 524.99 -1838.88 508.65 -1819.27 495.39 C-1818.51 494.88 -1817.75 494.37 -1816.97 493.85 C-1803.16 484.59 -1789.72 474.91 -1776.81 464.43 C-1774.91 462.9 -1773.01 461.4 -1771.08 459.91 C-1762.8 453.5 -1754.81 446.81 -1746.96 439.87 C-1745.44 438.54 -1743.9 437.23 -1742.35 435.92 C-1733.79 428.56 -1726.25 419.91 -1724.93 408.36 C-1724.5 399.07 -1726.71 392.72 -1732.59 385.58 C-1769.72 355.35 -1827.49 384.22 -1858.9 409.02 Z M-829.27 390.39 C-830.25 391.25 -831.23 392.11 -832.24 392.99 C-844.94 404.26 -861.56 419.32 -864.71 436.8 C-864.72 442.17 -863.99 446.33 -860.27 450.39 C-854.74 454.68 -848.12 455.71 -841.27 455.39 C-817.36 451.97 -795.68 436.12 -780.96 417.45 C-774.83 408.78 -769.92 399.45 -771.66 388.58 C-773.21 383.04 -776.63 379.56 -781.27 376.39 C-798.54 367.53 -816.58 379.09 -829.27 390.39 Z M-1198.27 521.39 C-1201.46 526.19 -1203.27 530.55 -1202.27 536.39 C-1199.8 539.83 -1198.24 541.16 -1194.1 542.15 C-1189.63 542.43 -1186.32 541.71 -1182.09 540.39 C-1181.34 540.16 -1180.6 539.93 -1179.84 539.7 C-1168.99 536.19 -1159.86 530.91 -1153.27 521.39 C-1151.74 518.08 -1151.74 518.08 -1151.27 515.39 C-1158.14 513.31 -1164.56 513.02 -1171.71 513.02 C-1172.79 512.99 -1173.87 512.97 -1174.99 512.94 C-1183.9 512.91 -1191.87 514.8 -1198.27 521.39 Z M-574.76 537.33 C-582.89 542 -592.22 548.46 -595.4 557.64 C-595.25 560.99 -594.58 562.01 -592.27 564.39 C-586.36 565.91 -581.09 564.72 -575.9 561.7 C-572.28 559.26 -569.15 556.69 -566.27 553.39 C-565.57 552.59 -564.87 551.78 -564.15 550.95 C-559.95 545.22 -558.91 541.35 -559.27 534.39 C-565.24 530.99 -569.31 534.37 -574.76 537.33 Z M-1344.27 627.39 C-1351.7 631.33 -1356.77 635.38 -1361.29 642.36 C-1361.74 643.05 -1362.2 643.74 -1362.68 644.45 C-1363.68 645.96 -1364.68 647.47 -1365.68 648.98 C-1367.92 652.37 -1370.2 655.72 -1372.48 659.08 C-1374.96 662.73 -1377.42 666.38 -1379.89 670.04 C-1381.77 672.82 -1383.65 675.61 -1385.54 678.39 C-1395.24 692.77 -1404.8 707.24 -1413.9 722.02 C-1414.45 722.9 -1414.99 723.79 -1415.56 724.71 C-1417.13 727.27 -1418.7 729.83 -1420.27 732.39 C-1420.68 733.06 -1421.09 733.72 -1421.51 734.41 C-1442.65 768.92 -1461.61 804.9 -1475.77 842.85 C-1477.44 847.3 -1479.23 851.67 -1481.12 856.03 C-1486.19 867.79 -1490.19 877.45 -1488.27 890.39 C-1488.15 891.24 -1488.02 892.09 -1487.89 892.96 C-1486.87 897.97 -1485.1 901.93 -1481.09 905.14 C-1475.95 907.42 -1472.04 907.89 -1466.71 906.39 C-1417.9 877.99 -1370.05 716.14 -1351.32 663.15 C-1349.89 659.1 -1348.42 655.07 -1346.94 651.04 C-1346.19 648.96 -1345.44 646.88 -1344.69 644.81 C-1344.33 643.85 -1343.98 642.89 -1343.61 641.91 C-1341.2 635.27 -1341.2 635.27 -1342.27 628.39 C-1343.26 627.9 -1343.26 627.9 -1344.27 627.39 Z " fill="#000000" transform="translate(2429.2734375,417.609375)"/>
<path d="M0 0 C990.33 0 1980.66 0 3001 0 C3001 525.03 3001 1050.06 3001 1591 C2010.67 1591 1020.34 1591 0 1591 C0 1065.97 0 540.94 0 0 Z M16 16 C16 530.47 16 1044.94 16 1575 C995.77 1575 1975.54 1575 2985 1575 C2985 1060.53 2985 546.06 2985 16 C2005.23 16 1025.46 16 16 16 Z " fill="#000000" transform="translate(83,83)"/>
<path d="M0 0 C960.63 0 1921.26 0 2911 0 C2911 495.33 2911 990.66 2911 1501 C1950.37 1501 989.74 1501 0 1501 C0 1005.67 0 510.34 0 0 Z M16 16 C16 500.77 16 985.54 16 1485 C966.07 1485 1916.14 1485 2895 1485 C2895 1000.23 2895 515.46 2895 16 C1944.93 16 994.86 16 16 16 Z " fill="#000000" transform="translate(128,128)"/>
<path d="M0 0 C1.76 1.16 1.76 1.16 3.54 2.62 C4.2 3.16 4.85 3.7 5.53 4.25 C6.57 5.12 6.57 5.12 7.62 6 C8.34 6.59 9.06 7.18 9.79 7.79 C14.53 11.71 19.14 15.75 23.66 19.91 C26.11 22.1 28.63 24.14 31.19 26.19 C36.52 30.5 41.48 35.14 46.45 39.85 C50.03 43.21 53.66 46.43 57.5 49.5 C63.48 54.28 68.99 59.52 74.55 64.77 C77.69 67.72 80.88 70.58 84.14 73.38 C86.33 75.29 88.48 77.24 90.62 79.19 C94.61 82.78 98.66 86.28 102.75 89.75 C108.36 94.52 113.79 99.46 119.17 104.49 C122.7 107.8 126.28 111.03 129.94 114.2 C134.71 118.37 139.35 122.69 144 127 C144.7 127.63 145.39 128.26 146.11 128.91 C154.22 136.51 158.92 145.61 159.38 156.75 C159.1 170.44 151.54 181.7 142.44 191.38 C140.54 193.42 138.72 195.48 136.91 197.6 C132.82 202.28 128.45 206.66 124.03 211.03 C122.77 212.28 122.77 212.28 121.49 213.56 C117.93 217.1 114.37 220.64 110.81 224.17 C108.19 226.77 105.58 229.37 102.97 231.97 C102.17 232.76 101.38 233.54 100.56 234.35 C97.1 237.79 93.73 241.25 90.55 244.95 C86.36 249.82 81.8 254.31 77.23 258.83 C75.84 260.22 74.44 261.61 73.04 263.01 C70.61 265.42 68.18 267.84 65.75 270.25 C62.83 273.15 59.91 276.05 57 278.95 C55.19 280.75 53.38 282.55 51.56 284.35 C50.75 285.16 49.93 285.98 49.08 286.82 C48.37 287.53 47.65 288.24 46.91 288.98 C44.95 290.96 44.95 290.96 43.37 293.26 C42.92 293.84 42.47 294.41 42 295 C41.34 295 40.68 295 40 295 C39.77 295.56 39.53 296.12 39.29 296.69 C37.67 299.59 35.68 301.58 33.33 303.92 C32.85 304.4 32.38 304.89 31.88 305.38 C30.28 306.99 28.67 308.59 27.06 310.19 C25.91 311.35 24.76 312.5 23.62 313.65 C20.49 316.78 17.37 319.91 14.24 323.03 C10.97 326.3 7.7 329.57 4.43 332.84 C-1.05 338.32 -6.54 343.81 -12.03 349.29 C-18.38 355.63 -24.73 361.99 -31.08 368.34 C-36.52 373.79 -41.97 379.24 -47.42 384.69 C-50.67 387.94 -53.93 391.2 -57.18 394.45 C-60.24 397.52 -63.3 400.57 -66.36 403.62 C-67.49 404.75 -68.61 405.87 -69.74 407 C-71.26 408.53 -72.8 410.06 -74.33 411.59 C-75.19 412.44 -76.05 413.3 -76.93 414.18 C-79 416 -79 416 -81 416 C-81 416.66 -81 417.32 -81 418 C-82.47 419.41 -82.47 419.41 -84.5 421.06 C-87.67 423.74 -90.39 426.51 -93.06 429.69 C-96.44 433.57 -99.23 436.02 -104 438 C-107.75 438.09 -108.86 437.12 -111.75 434.69 C-115.08 430.71 -115.08 430.71 -115 428 C-112.57 423.22 -110.3 420 -106.19 416.5 C-100.14 411.19 -94.42 405.55 -88.73 399.86 C-87.71 398.84 -86.69 397.82 -85.67 396.81 C-78.96 390.13 -78.96 390.13 -72.61 383.11 C-66.91 376.45 -60.48 370.43 -54.25 364.27 C-52.54 362.58 -50.83 360.88 -49.12 359.19 C-48.61 358.69 -48.1 358.18 -47.58 357.67 C-44.79 354.89 -42.14 352.05 -39.57 349.07 C-36.14 345.11 -32.51 341.4 -28.78 337.72 C-28.12 337.06 -27.46 336.4 -26.78 335.73 C-23.98 332.95 -21.19 330.18 -18.39 327.41 C-16.33 325.37 -14.27 323.32 -12.22 321.28 C-11.6 320.67 -10.98 320.06 -10.34 319.43 C-7.28 316.39 -4.35 313.29 -1.53 310.03 C2.02 305.92 5.8 302.09 9.66 298.28 C10.72 297.23 10.72 297.23 11.8 296.15 C14.78 293.19 17.77 290.22 20.76 287.26 C22.95 285.08 25.15 282.9 27.34 280.72 C28.01 280.06 28.67 279.41 29.36 278.73 C29.99 278.1 30.63 277.46 31.29 276.81 C31.84 276.27 32.39 275.72 32.95 275.16 C34.79 273.22 36.53 271.24 38.28 269.22 C41.79 265.18 45.49 261.38 49.29 257.61 C49.99 256.92 50.68 256.23 51.39 255.52 C52.88 254.03 54.37 252.55 55.86 251.06 C58.23 248.71 60.59 246.36 62.95 244 C68.81 238.15 74.68 232.3 80.55 226.46 C85.52 221.51 90.49 216.56 95.45 211.6 C97.77 209.29 100.09 206.99 102.41 204.68 C103.84 203.25 105.27 201.82 106.71 200.39 C107.66 199.44 107.66 199.44 108.64 198.48 C113.58 193.54 118.54 188.49 122.58 182.76 C123.05 182.18 123.52 181.6 124 181 C124.66 181 125.32 181 126 181 C126.27 180.45 126.53 179.9 126.81 179.33 C127.65 177.69 128.54 176.07 129.47 174.48 C133.13 168.2 135.87 163.33 134.66 155.89 C131.08 142.6 119.3 132.58 109.22 123.94 C107.02 122.01 104.87 120.04 102.73 118.05 C98.52 114.15 94.3 110.38 89.81 106.81 C83.98 102.13 78.6 97.01 73.19 91.85 C69.16 88.01 65.08 84.28 60.87 80.63 C58.14 78.25 55.47 75.78 52.81 73.31 C51.68 72.26 50.55 71.22 49.42 70.17 C48.85 69.64 48.28 69.11 47.7 68.57 C46.07 67.06 44.43 65.56 42.8 64.05 C38.22 59.83 33.64 55.6 29.09 51.34 C28.43 50.72 27.77 50.11 27.09 49.47 C25.82 48.28 24.55 47.09 23.29 45.9 C19.72 42.55 16.08 39.35 12.28 36.27 C11.86 35.85 11.44 35.43 11 35 C11 34.34 11 33.68 11 33 C10.47 32.79 9.94 32.58 9.4 32.36 C-0.94 26.49 -8.33 16.08 -12 5 C-12 4.34 -12 3.68 -12 3 C-10.76 2.3 -9.51 1.61 -8.25 0.94 C-7.21 0.36 -7.21 0.36 -6.14 -0.22 C-3.53 -1.17 -2.59 -0.89 0 0 Z " fill="#000000" transform="translate(2675,640)"/>
<path d="M0 0 C2.5 1.65 4.36 3.49 6 6 C6.22 10.44 3.59 13.55 1 17 C-1.25 19.44 -1.25 19.44 -4 22 C-4.51 22.49 -5.01 22.98 -5.54 23.48 C-10.47 28.05 -15.9 31.77 -21.45 35.53 C-26.68 39.08 -31.83 42.72 -36.94 46.44 C-42.76 50.67 -48.61 54.86 -54.5 59 C-60.3 63.08 -66.07 67.21 -71.81 71.38 C-78.16 75.98 -84.56 80.51 -91 85 C-100.41 91.56 -109.72 98.26 -119 105 C-127.88 111.44 -136.78 117.87 -145.75 124.19 C-146.45 124.68 -147.15 125.18 -147.88 125.69 C-151.15 128 -154.43 130.3 -157.72 132.59 C-176.97 145.01 -176.97 145.01 -188.12 163.88 C-188.63 175.57 -180.25 184.77 -173 193 C-171.24 194.88 -169.46 196.68 -167.59 198.45 C-165.88 200.11 -164.36 201.87 -162.81 203.69 C-159.26 207.82 -155.43 211.63 -151.53 215.44 C-148.83 218.08 -146.29 220.79 -143.84 223.66 C-140.87 227.1 -137.73 230.33 -134.5 233.52 C-134.02 234 -133.54 234.48 -133.04 234.97 C-131.04 236.95 -129.03 238.92 -127.01 240.89 C-125.53 242.35 -124.05 243.81 -122.57 245.27 C-121.69 246.13 -120.81 246.99 -119.91 247.88 C-118 250 -118 250 -118 252 C-117.01 252.33 -116.02 252.66 -115 253 C-113.57 254.44 -113.57 254.44 -112.02 256.35 C-107.2 262.02 -101.92 267.22 -96.66 272.47 C-95.57 273.57 -94.48 274.66 -93.38 275.75 C-91.11 278.03 -88.83 280.31 -86.55 282.58 C-83.65 285.48 -80.75 288.38 -77.85 291.28 C-75.6 293.54 -73.35 295.79 -71.1 298.04 C-70.03 299.11 -68.96 300.18 -67.89 301.24 C-61.14 308.04 -61.14 308.04 -54.03 314.46 C-48.97 318.79 -44.37 323.59 -39.71 328.34 C-37.42 330.67 -35.13 332.99 -32.83 335.3 C-28.58 339.6 -24.34 343.9 -20.11 348.21 C-17.15 351.23 -14.17 354.24 -11.19 357.24 C-10.07 358.38 -8.95 359.52 -7.84 360.66 C-1.47 367.2 4.44 372.37 12.62 376.6 C15 378 15 378 17 381 C16.92 384.89 16.23 386.69 13.88 389.81 C10.34 392.5 8.43 393 4 393 C-3.85 391.17 -8.99 386.15 -15 381 C-15.77 380.45 -16.54 379.91 -17.33 379.34 C-17.88 378.9 -18.43 378.46 -19 378 C-19 377.34 -19 376.68 -19 376 C-19.59 375.74 -20.17 375.47 -20.77 375.2 C-23.1 373.95 -24.71 372.59 -26.61 370.77 C-27.28 370.13 -27.96 369.49 -28.65 368.83 C-29.34 368.17 -30.04 367.5 -30.75 366.81 C-35.48 362.29 -40.25 357.85 -45.2 353.57 C-48.28 350.89 -51.29 348.14 -54.31 345.41 C-55.73 344.13 -57.16 342.87 -58.61 341.63 C-64.87 336.28 -70.68 330.49 -76.5 324.67 C-77.59 323.58 -78.67 322.5 -79.76 321.42 C-82.02 319.16 -84.28 316.9 -86.54 314.65 C-89.44 311.75 -92.34 308.86 -95.25 305.97 C-97.49 303.74 -99.72 301.51 -101.95 299.27 C-103.02 298.21 -104.1 297.14 -105.17 296.07 C-106.66 294.59 -108.15 293.1 -109.63 291.61 C-110.48 290.77 -111.32 289.92 -112.19 289.05 C-114 287 -114 287 -114 285 C-114.99 284.67 -115.98 284.34 -117 284 C-118.56 282.44 -118.56 282.44 -120.21 280.44 C-123.87 276.14 -127.68 272.03 -131.56 267.94 C-132.97 266.44 -134.39 264.95 -135.8 263.45 C-136.5 262.71 -137.2 261.96 -137.93 261.2 C-148.64 249.84 -159.29 238.41 -169.69 226.75 C-173.04 223.01 -176.53 219.45 -180.11 215.92 C-182.56 213.43 -184.83 210.83 -187.09 208.18 C-188.47 206.6 -189.9 205.06 -191.34 203.54 C-201.07 193.29 -211.64 180.27 -212.62 165.62 C-212.25 155.79 -206.3 146.96 -199.3 140.41 C-197.23 138.56 -195.13 136.77 -193 135 C-191.74 133.95 -191.74 133.95 -190.46 132.87 C-175.38 120.37 -159.27 109.16 -143.32 97.8 C-138.59 94.43 -133.89 91.03 -129.19 87.62 C-119.81 80.84 -110.36 74.17 -100.9 67.52 C-98.78 66.04 -96.67 64.55 -94.56 63.06 C-93.86 62.57 -93.17 62.08 -92.45 61.57 C-87.25 57.9 -82.09 54.18 -76.94 50.44 C-70.67 45.89 -64.35 41.45 -57.96 37.09 C-52.49 33.35 -47.07 29.54 -41.66 25.7 C-37.7 22.9 -33.72 20.11 -29.73 17.34 C-28.84 16.72 -27.95 16.1 -27.03 15.47 C-25.31 14.27 -23.59 13.08 -21.86 11.9 C-17.5 8.86 -13.36 5.73 -9.4 2.18 C-6.35 -0.39 -3.9 -0.52 0 0 Z " fill="#000000" transform="translate(545,651)"/>
<path d="M0 0 C4.15 4.59 7.27 9.72 7.5 16 C3.83 27.84 -1.28 40.61 -12.76 46.77 C-19.5 49.87 -25.76 50.96 -32.88 48.5 C-37.26 45.51 -39.91 42.35 -41.94 37.44 C-43.27 30.06 -43.86 23.06 -39.93 16.39 C-34.79 9.44 -27.34 6.13 -19.62 2.62 C-18.72 2.21 -17.81 1.79 -16.88 1.36 C-11.08 -1.15 -5.98 -3.13 0 0 Z " fill="#000000" transform="translate(1043.625,659.375)"/>
</svg>
